#!OML:ASF F:\VICON\USERDATA\INSTALL\rory3\rory3.ASF
:FULLY-SPECIFIED
:DEGREES
36
root -5.893379554895079 17.80083211613496 3.4194551784067286 1.0420146035497737 33.9448652941994 -11.406241783424989
lfemur -0.5691798056306894 20.85616681775599 7.311568929331042
ltibia 34.37102585630853
lfoot 3.973404881616302 16.93406935541106
ltoes -32.34973725213089
rfemur -30.325650446543847 21.24216702411593 26.051830542739225
rtibia 30.45679336297552
rfoot -4.95662812448981 30.093069346474444
rtoes 45.85626604857015
lowerback 0.7690080252465292 -9.8588534296768 -15.069129519735567
upperback -2.0634728287276904 -13.518204874174202 -5.145928572896196
thorax -0.06174894243535123 -6.5788549136969845 3.107804245503387
lowerneck -6.154120064475313 21.65542355234902 0.2078103450351626
upperneck 11.933708249433732 31.301649762856133 -12.355805323983908
head 7.038673863706105 14.344772617201448 -1.3828097048676047
lclavicle -5.6597384201508186e-15 -1.075886254579112e-14
lhumerus 113.52912963763222 -40.854684406714505 39.69549202831665
lradius 39.04914068607083
lwrist -0.658333349417024
lhand -29.635348833116637 -7.88886635972295
lfingers 7.125020000000001
lthumb -182.94008533268422 52.55253905601869
rclavicle -5.6597384201508186e-15 -1.0758862545791119e-14
rhumerus 30.0656636247131 -25.514566375690173 -56.102147940734724
rradius 109.69690509665358
rwrist 11.351854358521223
rhand -63.60956267874335 36.25841835123064
rfingers 7.125020000000001
rthumb -35.61156755059079 8.913936932248081
37
root -5.883816449760712 17.81327047936744 3.4732345934952185 1.1088267071019118 33.604718738422264 -11.296322118039939
lfemur -0.27295105300810363 20.607939632635947 7.398320471968656
ltibia 34.50350824023687
lfoot 4.38956276290369 16.559427470977944
ltoes -32.6942733938515
rfemur -29.95897668312834 21.55324037937529 26.119174092731186
rtibia 30.38616780217481
rfoot -4.748669846600413 30.150884196925233
rtoes 46.437260381460874
lowerback 0.6972536147913542 -9.788487865962827 -14.957720951720878
upperback -2.1522292582255433 -13.424106262012003 -5.216048338555165
thorax -0.15978117848241302 -6.527084754141653 2.982570671409345
lowerneck -6.063152064102308 21.693882582702948 0.29097241860760137
upperneck 11.778716155512825 31.31235881416727 -12.301868695388531
head 7.000615539657511 14.369127362032405 -1.3974535694009953
lclavicle -5.4125679509492204e-15 -1.0561475989606206e-14
lhumerus 114.33702467123588 -39.71461558154187 39.57035739651042
lradius 39.68818682877093
lwrist -0.8307227232401715
lhand -30.673023407037412 -8.324948477150262
lfingers 7.125020000000001
lthumb -183.93978418761048 52.176125862172896
rclavicle -5.4125679509492204e-15 -1.0561475989606204e-14
rhumerus 30.748884991966918 -26.521067794947708 -53.88710179140668
rradius 110.06519491648106
rwrist 12.430575891216876
rhand -63.982093807778284 36.61454379941871
rfingers 7.125020000000001
rthumb -35.96702022751598 9.317168621346848
38
root -5.8869745845068975 17.82239093430771 3.5163595756017068 1.9937876953042064 33.352707888052 -10.291881026264093
lfemur -0.06314657330916518 20.76993603889267 7.603832980546819
ltibia 34.62994708451198
lfoot 4.720066600353902 16.517988795542514
ltoes -33.40516969265565
rfemur -29.917147893797306 22.043222117535564 26.179213503922345
rtibia 30.240136853158397
rfoot -4.387997722717102 30.511754674690742
rtoes 46.71360945671268
lowerback 0.6923825802535055 -9.745101159117311 -15.080809940361357
upperback -2.145223765798522 -13.377706310312387 -5.336801027093468
thorax -0.21745872996354887 -6.482963872483628 2.9055794234660617
lowerneck -5.929201178169761 21.868828427373856 0.4219519210891546
upperneck 11.733964172057911 31.459473730658388 -12.316202547155608
head 6.9766971048072355 14.445104624611805 -1.4159465721112987
lclavicle -5.494225852926783e-15 -1.0634374879462678e-14
lhumerus 114.61824871514233 -39.41007671247392 39.1512129480587
lradius 39.94474719492759
lwrist -1.1357789454596272
lhand -31.04892872603974 -8.20967544316628
lfingers 7.125020000000001
lthumb -184.30157804370725 54.17459405782816
rclavicle -5.494225852926783e-15 -1.0634374879462676e-14
rhumerus 31.054127193599843 -27.395788736613763 -52.32646131644012
rradius 109.89890777684505
rwrist 12.075980926039623
rhand -64.50529467469406 36.67252840948706
rfingers 7.125020000000001
rthumb -36.46792465924486 9.406604074773398
39
root -5.880824554649013 17.827242379587748 3.527202732967887 1.7059193383621363 32.93904966544035 -10.642148761368816
lfemur -0.012948138071621429 20.78882963656688 7.644918957105446
ltibia 34.770701595039355
lfoot 4.741932570913465 16.091541241615964
ltoes -33.77316417393827
rfemur -30.02082699515021 22.288587576165597 26.107730256131713
rtibia 30.151658036406893
rfoot -4.412703922191517 30.528950756807895
rtoes 46.9875112626239
lowerback 0.7093246967755005 -9.760265055393804 -15.180274988616189
upperback -2.1286736120458967 -13.369475282019266 -5.465401591427748
thorax -0.2640156220789061 -6.453191653089673 2.8254971248941034
lowerneck -5.847098071599305 21.88999017179851 0.4723707650492931
upperneck 11.71475003694743 31.472959220850377 -12.372358838258352
head 6.964383555251615 14.457654939241676 -1.4512986820098075
lclavicle -5.915030876862934e-15 -1.0996368445042548e-14
lhumerus 115.33866364682825 -39.329312920714315 38.34161056254245
lradius 39.94806234307317
lwrist -1.241677522934971
lhand -31.083985975875244 -8.324055559202794
lfingers 7.125020000000001
lthumb -184.3353251857044 56.32671160081008
rclavicle -5.9150308768629345e-15 -1.0996368445042548e-14
rhumerus 30.946881501851692 -27.982722813345692 -51.03048879682912
rradius 109.88402777207983
rwrist 11.535555407538048
rhand -64.89252688858683 36.75850241239998
rfingers 7.125020000000001
rthumb -36.83748594903051 9.512067861095826
40
root -5.879162184195961 17.83423337905402 3.5346692668008166 0.8347903155399194 32.75564791763411 -11.504505735105937
lfemur 0.1328751288308041 20.730309712187182 7.947698393144288
ltibia 34.8623320656005
lfoot 4.741768651182005 15.877242309781506
ltoes -34.55241834247961
rfemur -29.762943964781677 22.610094725653667 26.138827949276944
rtibia 29.918434416783505
rfoot -4.050938919039745 30.779842512360418
rtoes 46.86559742861475
lowerback 0.8272677389553995 -9.588383176289017 -15.054289676434712
upperback -2.0798809708857933 -13.234187204492414 -5.514880028095108
thorax -0.3222769455487229 -6.406871448185992 2.727595946291651
lowerneck -5.699549319395136 21.966245734664216 0.4606360642349371
upperneck 11.868577045934302 31.566380225995356 -12.315450092439322
head 6.9674397920073226 14.503349295662828 -1.4573863156078692
lclavicle -5.566639664298246e-15 -1.0728013385901353e-14
lhumerus 115.5972643199493 -38.921578200198624 38.367552286641796
lradius 40.20511084903617
lwrist -0.8930739453340522
lhand -30.882023797319974 -7.759754912070637
lfingers 7.125020000000001
lthumb -184.14201341699254 59.9153743296063
rclavicle -5.566639664298247e-15 -1.0728013385901352e-14
rhumerus 31.724446746751973 -28.10266722688848 -49.99824143155327
rradius 109.62065879760542
rwrist 11.209067525747308
rhand -64.94424881597361 37.00729929668739
rfingers 7.125020000000001
rthumb -36.884019745185114 9.785736332724284
41
root -5.87823544472929 17.842138065890314 3.512055093199121 0.3633995925933391 32.751228644681646 -12.124504295513148
lfemur 0.07646107104387312 20.862555343494606 8.0884487483129
ltibia 35.136425306115456
lfoot 4.493113799083082 15.730306743647096
ltoes -34.98330921879659
rfemur -29.80389195863824 22.713187526193643 26.11325986812616
rtibia 29.551462757385185
rfoot -4.077456338548838 30.694697083845497
rtoes 46.786129857912954
lowerback 0.9777923906543307 -9.524469158498261 -15.099442572071728
upperback -2.048209483698108 -13.231707616404673 -5.538882227192122
thorax -0.3903545148393708 -6.426567911659225 2.7206414984399583
lowerneck -5.645083930433028 22.02362569835144 0.32466477696791385
upperneck 12.046768946093286 31.64491850557686 -12.3076669027307
head 6.986289329403796 14.533403025142865 -1.4421676168549649
lclavicle -5.735190855488754e-15 -1.0867344276676894e-14
lhumerus 115.69617741599735 -38.628881474249646 38.10975645493764
lradius 40.17719259274457
lwrist -0.5826203642102037
lhand -30.262377379964853 -7.288399882887216
lfingers 7.125020000000001
lthumb -183.54586140975093 56.49919723259603
rclavicle -5.735190855488753e-15 -1.0867344276676894e-14
rhumerus 32.269778067497654 -28.10647625453846 -49.336859167790365
rradius 109.40916069468489
rwrist 10.059130925272864
rhand -65.00389211382137 36.79778211842769
rfingers 7.125020000000001
rthumb -36.93917046482693 9.569083453785542
42
root -5.8783667220385825 17.848352549149812 3.507239308446794 0.056698863373384256 32.98404844554301 -12.544026202695122
lfemur -0.11718493233053806 21.11736064956955 8.232238954053331
ltibia 35.268019344685506
lfoot 4.372974518701149 15.561342620606888
ltoes -35.364142625117665
rfemur -29.80675918892922 22.779899399282343 26.10469000026381
rtibia 29.506461392772565
rfoot -3.961750011703942 30.733122453135152
rtoes 46.66338270025277
lowerback 1.2097371453712324 -9.457301685733222 -14.99772550836161
upperback -1.8794414297773612 -13.151106894810425 -5.5138893433779455
thorax -0.3668855229829213 -6.379901894505295 2.782069829097409
lowerneck -5.618957128551635 22.117944076774897 0.2424869124965996
upperneck 12.243522813619421 31.83190776774988 -12.251334318630391
head 7.041429223029171 14.61613185669713 -1.4168103219020742
lclavicle -5.3077917019009764e-15 -1.0519142745498249e-14
lhumerus 115.99120442143197 -38.47664565099829 38.18923406932161
lradius 40.02217594374565
lwrist -0.37070504479980215
lhand -29.459277941423736 -6.7562773174105075
lfingers 7.125020000000001
lthumb -182.7721783427631 58.78997857187991
rclavicle -5.3077917019009764e-15 -1.0519142745498249e-14
rhumerus 32.646226581955375 -27.949723429439498 -49.22855058978432
rradius 109.18660841457304
rwrist 8.673026475257988
rhand -65.05448937426779 36.787730938985156
rfingers 7.125020000000001
rthumb -36.98561182831236 9.60413284854253
43
root -5.885290245152345 17.85291176493708 3.4754593077892455 -0.2774324304897533 33.55676135872535 -13.075838286280145
lfemur -0.5265817174148317 21.488761726348127 8.292020260483689
ltibia 35.35111234623284
lfoot 3.9523952254580434 15.451202389562953
ltoes -35.67321193636678
rfemur -30.0314034170789 22.576103597286206 26.1002556961313
rtibia 29.39001102809778
rfoot -4.155275713541729 30.4718076437519
rtoes 46.056237995265406
lowerback 1.5219476406406653 -9.4038299819966 -14.94581112017738
upperback -1.6904258064230566 -13.138594720422653 -5.491151376112425
thorax -0.35264244861721783 -6.384617051579058 2.8607459879994015
lowerneck -5.596800187065073 22.191759689768045 0.20561248350449013
upperneck 12.416658424322979 31.95770186890485 -12.215961816195708
head 7.0915632834821825 14.665582058517463 -1.393306806030485
lclavicle -5.118127268103728e-15 -1.0371703793245525e-14
lhumerus 115.86478499238999 -38.56704805489387 38.442152797353046
lradius 39.629645855431846
lwrist -0.2599202298142913
lhand -28.250203770311963 -6.006746694106795
lfingers 7.125020000000001
lthumb -181.60805927502517 58.380667373081565
rclavicle -5.118127268103728e-15 -1.0371703793245525e-14
rhumerus 32.845937486579075 -27.73531127649115 -49.66036966648058
rradius 108.75931209464918
rwrist 6.64329700087681
rhand -65.09252159302795 36.359234195032194
rfingers 7.125020000000001
rthumb -37.02206860950828 9.188251229615592
